# xmcd
#
# Track frame offsets:
#	150
#	41440
#	86475
#	134432
#	183940
#	225940
#
# Disc length: 3129 seconds
#
# Revision: 1
# Processed by: cddbd v1.5.1PL0 Copyright (c) Steve Scherf et al.
# Submitted via: CDex 1.50Beta5
#
DISCID=3e0c3706
DTITLE=YUHKI - 野鳥物語〜さえずりと音楽〜2.戸隠高原(長野)篇
DYEAR=1996
DGENRE=
TTITLE0=クロツグミ
TTITLE1=ノジコ
TTITLE2=クロジ
TTITLE3=コルリ
TTITLE4=ホトトギス
TTITLE5=野鳥物語メイン・テーマ
EXTD=
EXTT0=
EXTT1=
EXTT2=
EXTT3=
EXTT4=
EXTT5=
PLAYORDER=
